HIERARCHY
ROOT Hips
{
	OFFSET 0.00000 0.00000 0.00000
	CHANNELS 6 Xposition Yposition Zposition Yrotation Zrotation Xrotation 
	JOINT Lumbar
	{
		OFFSET 0 0 0
		CHANNELS 3 Zrotation Xrotation Yrotation
		JOINT Neck
		{
			OFFSET 0.00 0.2701 0.00
			CHANNELS 3 Zrotation Xrotation Yrotation
			End Site
			{
				OFFSET 0.00 0.1379 0.00
			}
		}
		JOINT RightShoulder
		{
			OFFSET 0.0119 0.2289 0.1181
			CHANNELS 3 Zrotation Xrotation Yrotation
			JOINT RightElbow
			{
				OFFSET 0.00 -0.1475 0.00
				CHANNELS 2 Zrotation Yrotation
				JOINT RightWrist
				{
					OFFSET 0.00 -0.1605 0.00
					CHANNELS 2 Zrotation Xrotation
					End Site
					{
						OFFSET 0.0040 -0.1068 0.0006
					}
				}
			}
		}
		JOINT LeftShoulder
		{
			OFFSET 0.0119 0.2289 -0.1181
			CHANNELS 3 Zrotation Xrotation Yrotation
			JOINT LeftElbow
			{
				OFFSET 0.00 -0.1475 0.00
				CHANNELS 2 Zrotation Yrotation
				JOINT LeftWrist
				{
					OFFSET 0.00 -0.1605 0.00
					CHANNELS 2 Zrotation Xrotation
					End Site
					{
						OFFSET 0.0040 -0.1068 -0.0006
					}
				}
			}
		}
	}
	JOINT RightHip
	{
		OFFSET 0.0316 -0.0424 0.0458
		CHANNELS 3 Zrotation Xrotation Yrotation
		JOINT RightKnee
		{
			OFFSET 0.00 -0.2438 0.00
			CHANNELS 1 Zrotation
			JOINT RightAnkle
			{
				OFFSET 0.00 -0.2449 0.00
				CHANNELS 3 Zrotation Xrotation Yrotation
				End Site
				{
					OFFSET 0.1237 -0.0542 0.0051
				}
			}
		}
	}
	JOINT LeftHip
	{
		OFFSET 0.0316 -0.0424 -0.0458
		CHANNELS 3 Zrotation Xrotation Yrotation
		JOINT LeftKnee
		{
			OFFSET 0.00 -0.2438 0.00
			CHANNELS 1 Zrotation
			JOINT LeftAnkle
			{
				OFFSET 0.00 -0.2449 0.00
				CHANNELS 3 Zrotation Xrotation Yrotation
				End Site
				{
					OFFSET 0.1237 -0.0542 -0.0051
				}
			}
		}
	}
}
MOTION
Frames: 19
Frame Time: 0.02
-0.00137 -6e-05 -0.00055 174.50016 -39.71696 -4.59854 47.5573 0.39791 -8.14962 -2.71637 6.41549 -0.33753 -35.7686 -3.14872 -17.98436 24.69839 125.42251 14.145 6.10669 -48.82852 28.97183 -25.19874 47.28937 -81.55965 7.27834 2.61736 42.79327 1.25104 -5.4629 -18.99221 -6.18589 -2.56636 -1.92861 46.27972 4.07579 6.52358 -25.37951 -6.1515 3.03951 2.20814
-0.00108 -5e-05 -0.0005 174.55632 -39.6829 -4.5529 47.53518 0.4355 -8.16097 -2.69579 6.2901 -0.33831 -35.07701 -3.43284 -18.00878 24.99566 125.42207 14.12428 6.11368 -47.96073 27.35493 -22.01621 47.17899 -86.99809 9.33593 1.81512 42.79167 1.21441 -5.51728 -19.00128 -6.18361 -2.56936 -1.92966 46.28527 4.01758 6.38899 -25.37904 -6.15694 3.05603 2.21492
-0.00078 -3e-05 -0.00044 174.61252 -39.64887 -4.5073 47.51302 0.47305 -8.17222 -2.67522 6.16486 -0.33909 -34.38641 -3.71691 -18.03247 25.29277 125.42145 14.10366 6.12059 -47.09263 25.7442 -18.8477 47.06905 -92.4186 11.38642 1.01551 42.79004 1.1778 -5.57158 -19.01032 -6.18134 -2.57236 -1.9307 46.2908 3.95943 6.25469 -25.37855 -6.16238 3.0725 2.22168
-0.00048 -1e-05 -0.00039 174.66854 -39.6149 -4.46179 47.49095 0.51053 -8.18353 -2.6547 6.03982 -0.33987 -33.69677 -4.00024 -18.05681 25.58926 125.42133 14.08311 6.1276 -46.22705 24.13256 -15.67583 46.95896 -97.8401 13.43756 0.21576 42.78844 1.14128 -5.62581 -19.01936 -6.17908 -2.57536 -1.93175 46.29632 3.90138 6.1205 -25.37807 -6.16781 3.08897 2.22844
-0.00018 0 -0.00033 174.72444 -39.58095 -4.41628 47.46893 0.54803 -8.19495 -2.63418 5.91472 -0.34065 -33.00655 -4.28345 -18.08185 25.88559 125.42052 14.06217 6.13458 -45.36284 22.51405 -12.48789 46.84857 -103.27999 15.49608 -0.58669 42.78689 1.10475 -5.6801 -19.02843 -6.17682 -2.57834 -1.93278 46.30189 3.8433 5.98603 -25.3776 -6.17325 3.10551 2.23522
0.00012 2e-05 -0.00027 174.78127 -39.54673 -4.37046 47.44647 0.58572 -8.20584 -2.61351 5.78919 -0.34144 -32.31518 -4.56936 -18.10256 26.18432 125.41976 14.04208 6.14128 -44.48663 20.91964 -9.36006 46.73967 -108.65946 17.52953 -1.38029 42.78511 1.06797 -5.73438 -19.03741 -6.17453 -2.58138 -1.93385 46.30733 3.78501 5.8521 -25.37708 -6.17867 3.12182 2.24193
0.00042 4e-05 -0.00022 174.83615 -39.51307 -4.32535 47.42498 0.62292 -8.21782 -2.59318 5.66465 -0.34221 -31.62697 -4.84919 -18.13266 26.47797 125.42136 14.02101 6.14888 -43.63562 19.27927 -6.11629 46.62746 -114.15423 19.61111 -2.19074 42.78376 1.03178 -5.78864 -19.04656 -6.17229 -2.58432 -1.93485 46.31299 3.72725 5.71731 -25.37667 -6.18413 3.13856 2.24878
0.00072 5e-05 -0.00016 174.89285 -39.47892 -4.27954 47.40249 0.66069 -8.22872 -2.57251 5.53922 -0.34301 -30.9357 -5.13521 -18.15283 26.77614 125.41634 13.99953 6.15503 -42.76124 17.67987 -2.9766 46.5191 -119.54331 21.64845 -2.9858 42.78208 0.99499 -5.84289 -19.05555 -6.17002 -2.58734 -1.93592 46.31851 3.66891 5.58316 -25.37616 -6.18956 3.15493 2.25551
0.00102 7e-05 -0.0001 174.95177 -39.44407 -4.23302 47.37915 0.69872 -8.23861 -2.5515 5.41255 -0.34378 -30.24078 -5.42676 -18.1658 27.08076 125.42084 13.98276 6.16185 -41.85789 16.13567 0.02521 46.41223 -124.80273 23.63189 -3.76176 42.77972 0.95766 -5.89729 -19.06434 -6.16765 -2.5905 -1.93708 46.32359 3.61019 5.45032 -25.37553 -6.19492 3.17076 2.26204
0.0013 8e-05 -7e-05 174.99791 -39.41293 -4.191 47.36183 0.73393 -8.25522 -2.53269 5.29252 -0.3445 -29.56708 -5.6804 -18.23502 27.35108 125.42349 13.95458 6.17216 -41.11993 14.28923 3.78831 46.28711 -130.80687 25.92602 -4.6468 42.78044 0.92398 -5.95133 -19.07429 -6.1657 -2.59297 -1.93772 46.33041 3.55461 5.3115 -25.37558 -6.20055 3.18941 2.26956
0.00163 0.0001 2e-05 175.07097 -39.37418 -4.13924 47.33112 0.77592 -8.25707 -2.50908 5.15882 -0.34549 -28.84865 -6.0178 -18.17616 27.69186 125.39622 13.94044 6.17043 -40.03427 13.07065 5.96589 46.20671 -135.24038 27.56422 -5.30216 42.7752 0.88228 -6.0058 -19.08178 -6.16293 -2.59683 -1.93943 46.33407 3.49183 5.18434 -25.37419 -6.20573 3.20231 2.2751
0.00207 0.00014 0.00025 175.21887 -39.31268 -4.06231 47.26871 0.83005 -8.22311 -2.47333 4.98459 -0.34594 -28.00466 -6.5554 -17.84298 28.2428 125.5735 14.05034 6.1751 -37.97444 13.67571 3.57428 46.19984 -135.30948 27.38578 -5.31644 42.74937 0.82085 -6.06393 -19.08258 -6.15737 -2.60501 -1.94421 46.32502 3.41391 5.09861 -25.36902 -6.20872 3.19752 2.2743
0.00257 0.00019 0.00053 175.39351 -39.24404 -3.97529 47.19181 0.89232 -8.17357 -2.4325 4.79728 -0.3469 -27.11582 -7.18174 -17.36942 28.86061 125.67453 14.16038 6.16136 -35.56983 14.89466 -0.37247 46.24745 -133.80612 26.55008 -5.10134 42.71857 0.75093 -6.12189 -19.08092 -6.1511 -2.61451 -1.95003 46.31373 3.32806 5.0237 -25.3624 -6.21142 3.18722 2.27164
0.00306 0.00023 0.00079 175.55545 -39.17969 -3.89186 47.11839 0.95493 -8.12794 -2.39343 4.6178 -0.34848 -26.24992 -7.78794 -16.90646 29.43784 125.61439 14.2121 6.12905 -33.33521 15.76425 -3.46051 46.30169 -133.06488 26.02822 -4.99929 42.69253 0.68341 -6.17852 -19.08031 -6.14551 -2.62306 -1.95526 46.30583 3.24258 4.93657 -25.35633 -6.21487 3.18083 2.27053
0.00349 0.00027 0.00102 175.72026 -39.11026 -3.81264 47.05849 0.99996 -8.09519 -2.35698 4.42991 -0.3465 -25.37498 -8.31268 -16.65729 30.06141 126.35221 14.50195 6.20635 -31.04094 16.92359 -7.17882 46.22172 -132.1423 25.44808 -4.86277 42.65498 0.62203 -6.24171 -19.07988 -6.13837 -2.63304 -1.96097 46.28711 3.17005 4.87672 -25.35069 -6.21572 3.16892 2.26668
0.00405 0.00033 0.00133 175.88482 -39.05053 -3.72223 46.96645 1.08419 -8.03252 -2.31348 4.25694 -0.35198 -24.50591 -9.02361 -15.94273 30.60033 125.44577 14.30562 6.05609 -28.79271 17.63571 -9.97105 46.43646 -131.19663 24.82476 -4.73972 42.64141 0.54584 -6.29042 -19.07859 -6.13433 -2.64041 -1.96594 46.29138 3.06954 4.7671 -25.34384 -6.22188 3.16667 2.2678
0.00493 0.00043 0.00179 176.04717 -39.01274 -3.60359 46.79366 1.26921 -7.88606 -2.25526 4.12447 -0.37855 -23.68422 -10.26499 -13.86436 30.92257 119.70825 12.68235 5.23776 -26.72817 16.86707 -9.66192 47.43154 -130.8265 24.32387 -4.7458 42.68536 0.43077 -6.30626 -19.07476 -6.1387 -2.63954 -1.9684 46.35159 2.88589 4.4778 -25.3337 -6.24324 3.19717 2.28574
0.00594 0.00056 0.00232 176.20736 -38.98632 -3.47402 46.58801 1.49438 -7.71105 -2.18954 4.00833 -0.41248 -22.86619 -11.68327 -11.34331 31.15092 112.37554 10.58544 4.19915 -24.72783 15.64426 -8.3955 48.72437 -130.44646 23.78966 -4.7675 42.75566 0.30105 -6.30657 -19.0703 -6.14628 -2.63605 -1.97009 46.43674 2.67566 4.14464 -25.32246 -6.26988 3.23682 2.30833
0.0069 0.00068 0.00283 176.36527 -38.95884 -3.34929 46.39473 1.70477 -7.55227 -2.12491 3.88717 -0.44263 -22.03333 -12.99599 -9.09953 31.40046 105.97712 8.76084 3.29057 -22.71563 14.69258 -7.67623 49.89501 -129.89679 23.21496 -4.7577 42.82009 0.1781 -6.30888 -19.06658 -6.15259 -2.63427 -1.9723 46.51547 2.48292 3.85852 -25.31194 -6.29376 3.26904 2.32701
